<svg width="650" height="193" viewBox="0 0 650 193" fill="none" xmlns="http://www.w3.org/2000/svg">
<path d="M365.632 88.2629V19.0703H332.616V86.858H302.762V120.752H334.548L365.632 88.2629Z" fill="#F8F7F0"/>
<path fill-rule="evenodd" clip-rule="evenodd" d="M120.473 53.1398V19.0703H151.732L184.397 51.7348V69.2961V70.7013V88.2626L151.732 120.927H120.473V86.8577H151.732V70.7013V69.2961V53.1398H120.473Z" fill="#F8F7F0"/>
<path fill-rule="evenodd" clip-rule="evenodd" d="M232.164 53.1398V19.0703H263.424L296.088 51.7348V69.2961V70.7013V88.2626L263.424 120.927H232.164V86.8577H263.424V70.7013V69.2961V53.1398H232.164Z" fill="#F8F7F0"/>
<path d="M261.314 19.0703L261.314 53.1398L230.055 53.1398L230.055 70.7013L197.39 70.7013L197.39 51.7348L230.055 19.0703L261.314 19.0703Z" fill="#F8F7F0"/>
<path fill-rule="evenodd" clip-rule="evenodd" d="M0 53.1398V19.0703H31.2596L63.9242 51.7348V69.2961V70.7013V88.2626L31.2596 120.927H0V86.8577H31.2596V70.7013V69.2961V53.1398H0Z" fill="#F8F7F0"/>
<rect x="75.8652" y="19.4209" width="32.6646" height="101.506" fill="#F8F7F0"/>
<rect x="259.209" y="86.8584" width="34.0695" height="109.936" transform="rotate(90 259.209 86.8584)" fill="#F8F7F0"/>
<path d="M174.209 30.7451L186.062 18.8919L190.794 18.8919L195.54 18.8919L207.393 30.7451L190.801 47.337L174.209 30.7451Z" fill="#F8F7F0"/>
<path fill-rule="evenodd" clip-rule="evenodd" d="M15.8457 155.895V139.542H30.8503L46.5293 155.221V164.325H31.5254V172.08H46.53V188.434H31.5254L15.8464 172.755V163.651H30.8503V155.895H15.8457Z" fill="#F8F7F0"/>
<rect y="139.543" width="15.8476" height="48.8914" fill="#F8F7F0"/>
<path fill-rule="evenodd" clip-rule="evenodd" d="M71.2579 155.895V139.542H86.2626L101.942 155.221V164.325H101.941V172.755L86.2624 188.434H71.2578V172.081H86.2624V163.651H86.2626V155.895H71.2579Z" fill="#F8F7F0"/>
<path fill-rule="evenodd" clip-rule="evenodd" d="M84.2383 155.895V139.542H69.2337L53.5547 155.221V163.651V164.325V172.755L69.2337 188.434H84.2383V172.081H69.2337V164.325V163.651V155.895H84.2383Z" fill="#F8F7F0"/>
<path fill-rule="evenodd" clip-rule="evenodd" d="M150.609 155.895V139.542H135.605L119.926 155.221V163.651V164.325V172.755L135.605 188.434H150.609V172.081H135.605V164.325V163.651V155.895H150.609Z" fill="#F8F7F0"/>
<rect x="108.967" y="139.543" width="15.8476" height="48.8914" fill="#F8F7F0"/>
<path fill-rule="evenodd" clip-rule="evenodd" d="M173.988 139.542L157.635 139.542L157.635 154.547L173.314 170.226L181.743 170.226L182.418 170.226L206.526 170.226L206.526 154.547L206.526 139.542L190.172 139.542L190.172 154.547L182.418 154.547L181.743 154.547L173.988 154.547L173.988 139.542Z" fill="#F8F7F0"/>
<path fill-rule="evenodd" clip-rule="evenodd" d="M173.988 188.489L157.635 188.489L157.635 173.485L157.635 157.806L181.743 157.806L182.418 157.806L190.847 157.806L206.526 173.485L206.526 188.489L190.172 188.489L190.172 173.485L182.418 173.485L173.988 173.485L173.988 188.489Z" fill="#F8F7F0"/>
<path fill-rule="evenodd" clip-rule="evenodd" d="M229.395 155.895V139.542H244.399L260.078 155.221V163.651V164.325V172.755L244.399 188.434H229.395V172.081H244.399V164.325V163.651V155.895H229.395Z" fill="#F8F7F0"/>
<rect x="213.549" y="139.543" width="15.8476" height="48.8914" fill="#F8F7F0"/>
<path d="M297.366 139.542H282.277L267.104 154.378V188.18H285.058L296.607 173.513H282.277V155.642H297.366V188.18H312.202V154.378L297.366 139.542Z" fill="#F8F7F0"/>
<path fill-rule="evenodd" clip-rule="evenodd" d="M335.074 155.895V139.542H350.079L365.758 155.221V164.325H365.758V172.755L350.079 188.434H335.074V172.081H350.079V163.651H350.079V155.895H335.074Z" fill="#F8F7F0"/>
<rect x="319.227" y="139.542" width="15.8476" height="48.8914" fill="#F8F7F0"/>
<path opacity="0.1" d="M449.26 130.007V52.9288L550.395 17.5332L562.227 130.25C562.227 130.25 449.26 133.428 449.26 130.007Z" fill="white"/>
<path d="M593.731 69.3495L643.967 62.3457M592.514 85.4364L621.088 91.8334M588.96 104.617L602.22 110.381" stroke="#F8F7F0" stroke-width="8.15981" stroke-linecap="square" stroke-linejoin="bevel"/>
<path d="M588.252 54.8874L613.987 40.9187M579.587 37.4101L590.765 28.239" stroke="#F8F7F0" stroke-width="8.15981" stroke-linecap="square" stroke-linejoin="bevel"/>
<path d="M472.009 139.287L452.352 172.188L479.687 184.019" stroke="#F8F7F0" stroke-width="12.2397" stroke-linecap="square" stroke-linejoin="bevel"/>
<path d="M486.99 140.058L498.386 180.307L525.429 167.819" stroke="#F8F7F0" stroke-width="12.2397" stroke-linecap="square" stroke-linejoin="bevel"/>
<rect x="406.373" y="64.8604" width="17.3364" height="51.2414" fill="#F8F7F0"/>
<path fill-rule="evenodd" clip-rule="evenodd" d="M554.105 0.850586L420.692 44.9135L414.531 53.4365V130.139L423.507 139.114H556.92L565.896 130.139V9.37355L554.105 0.850586ZM432.483 120.928V59.9247L547.944 21.7907V121.163H449.212L432.452 136.381V120.927L432.483 120.928Z" fill="#F8F7F0"/>
</svg>
