<svg width="366" height="49" viewBox="0 0 366 49" fill="none" xmlns="http://www.w3.org/2000/svg">
<path fill-rule="evenodd" clip-rule="evenodd" d="M15.8457 16.3533V0H30.8503L46.5293 15.679V24.7829H31.5254V32.5385H46.53V48.8918H31.5254L15.8464 33.2129V24.109H30.8503V16.3533H15.8457Z" fill="#04004A"/>
<rect y="0.000976562" width="15.8476" height="48.8914" fill="#04004A"/>
<path fill-rule="evenodd" clip-rule="evenodd" d="M71.2579 16.3533V0H86.2626L101.942 15.679V24.7829H101.941V33.2131L86.2624 48.892H71.2578V32.5387H86.2624V24.1092H86.2626V16.3533H71.2579Z" fill="#04004A"/>
<path fill-rule="evenodd" clip-rule="evenodd" d="M84.2383 16.3533V0H69.2337L53.5547 15.679V24.1092V24.7829V33.2131L69.2337 48.892H84.2383V32.5387H69.2337V24.7829V24.1092V16.3533H84.2383Z" fill="#04004A"/>
<path fill-rule="evenodd" clip-rule="evenodd" d="M150.609 16.3533V0H135.605L119.926 15.679V24.1092V24.7829V33.2131L135.605 48.892H150.609V32.5387H135.605V24.7829V24.1092V16.3533H150.609Z" fill="#04004A"/>
<rect x="108.967" width="15.8476" height="48.8914" fill="#04004A"/>
<path fill-rule="evenodd" clip-rule="evenodd" d="M173.988 7.14826e-07L157.635 2.13707e-06L157.635 15.0046L173.314 30.6836L181.743 30.6836L182.418 30.6836L206.526 30.6836L206.526 15.0046L206.526 2.13708e-06L190.172 1.42226e-06L190.172 15.0046L182.418 15.0046L181.743 15.0046L173.988 15.0046L173.988 7.14826e-07Z" fill="#04004A"/>
<path fill-rule="evenodd" clip-rule="evenodd" d="M173.988 48.9473L157.635 48.9473L157.635 33.9427L157.635 18.2637L181.743 18.2637L182.418 18.2637L190.847 18.2637L206.526 33.9427L206.526 48.9473L190.172 48.9473L190.172 33.9427L182.418 33.9427L173.988 33.9427L173.988 48.9473Z" fill="#04004A"/>
<path fill-rule="evenodd" clip-rule="evenodd" d="M229.395 16.3533V0H244.399L260.078 15.679V24.1092V24.7829V33.2131L244.399 48.892H229.395V32.5387H244.399V24.7829V24.1092V16.3533H229.395Z" fill="#04004A"/>
<rect x="213.549" width="15.8476" height="48.8914" fill="#04004A"/>
<path d="M297.366 0H282.277L267.104 14.836V48.6385H285.058L296.607 33.9711H282.277V16.1004H297.366V48.6385H312.202V14.836L297.366 0Z" fill="#04004A"/>
<path fill-rule="evenodd" clip-rule="evenodd" d="M335.074 16.3533V0H350.079L365.758 15.679V24.7829H365.758V33.2131L350.079 48.892H335.074V32.5387H350.079V24.1092H350.079V16.3533H335.074Z" fill="#04004A"/>
<rect x="319.227" width="15.8476" height="48.8914" fill="#04004A"/>
</svg>
