<svg width="650" height="192" viewBox="0 0 650 192" fill="none" xmlns="http://www.w3.org/2000/svg">
<path d="M365.632 87.4123V18.2197H332.616V86.0074H302.762V119.901H334.548L365.632 87.4123Z" fill="black"/>
<path fill-rule="evenodd" clip-rule="evenodd" d="M120.473 52.2892V18.2197H151.732L184.397 50.8843V68.4455V69.8508V87.412L151.732 120.077H120.473V86.0071H151.732V69.8508V68.4455V52.2892H120.473Z" fill="black"/>
<path fill-rule="evenodd" clip-rule="evenodd" d="M232.164 52.2892V18.2197H263.424L296.088 50.8843V68.4455V69.8508V87.412L263.424 120.077H232.164V86.0071H263.424V69.8508V68.4455V52.2892H232.164Z" fill="black"/>
<path d="M261.314 18.2197L261.314 52.2892L230.055 52.2892L230.055 69.8508L197.39 69.8508L197.39 50.8843L230.055 18.2197L261.314 18.2197Z" fill="black"/>
<path fill-rule="evenodd" clip-rule="evenodd" d="M0 52.2892V18.2197H31.2596L63.9242 50.8843V68.4455V69.8508V87.412L31.2596 120.077H0V86.0071H31.2596V69.8508V68.4455V52.2892H0Z" fill="black"/>
<rect x="75.8652" y="18.5703" width="32.6646" height="101.506" fill="black"/>
<rect x="259.209" y="86.0078" width="34.0695" height="109.936" transform="rotate(90 259.209 86.0078)" fill="black"/>
<path d="M174.209 29.8945L186.062 18.0413L190.794 18.0413L195.54 18.0413L207.393 29.8945L190.801 46.4864L174.209 29.8945Z" fill="black"/>
<path fill-rule="evenodd" clip-rule="evenodd" d="M15.8457 155.045V138.691H30.8503L46.5293 154.37V163.474H31.5254V171.23H46.53V187.583H31.5254L15.8464 171.904V162.8H30.8503V155.045H15.8457Z" fill="black"/>
<rect y="138.692" width="15.8476" height="48.8914" fill="black"/>
<path fill-rule="evenodd" clip-rule="evenodd" d="M71.2579 155.045V138.691H86.2626L101.942 154.37V163.474H101.941V171.904L86.2624 187.583H71.2578V171.23H86.2624V162.801H86.2626V155.045H71.2579Z" fill="black"/>
<path fill-rule="evenodd" clip-rule="evenodd" d="M84.2383 155.045V138.691H69.2337L53.5547 154.37V162.801V163.474V171.904L69.2337 187.583H84.2383V171.23H69.2337V163.474V162.801V155.045H84.2383Z" fill="black"/>
<path fill-rule="evenodd" clip-rule="evenodd" d="M150.609 155.045V138.691H135.605L119.926 154.37V162.801V163.474V171.904L135.605 187.583H150.609V171.23H135.605V163.474V162.801V155.045H150.609Z" fill="black"/>
<rect x="108.967" y="138.691" width="15.8476" height="48.8914" fill="black"/>
<path fill-rule="evenodd" clip-rule="evenodd" d="M173.988 138.691L157.635 138.691L157.635 153.696L173.314 169.375L181.743 169.375L182.418 169.375L206.526 169.375L206.526 153.696L206.526 138.691L190.172 138.691L190.172 153.696L182.418 153.696L181.743 153.696L173.988 153.696L173.988 138.691Z" fill="black"/>
<path fill-rule="evenodd" clip-rule="evenodd" d="M173.988 187.639L157.635 187.639L157.635 172.634L157.635 156.955L181.743 156.955L182.418 156.955L190.847 156.955L206.526 172.634L206.526 187.639L190.172 187.639L190.172 172.634L182.418 172.634L173.988 172.634L173.988 187.639Z" fill="black"/>
<path fill-rule="evenodd" clip-rule="evenodd" d="M229.395 155.045V138.691H244.399L260.078 154.37V162.801V163.474V171.904L244.399 187.583H229.395V171.23H244.399V163.474V162.801V155.045H229.395Z" fill="black"/>
<rect x="213.549" y="138.691" width="15.8476" height="48.8914" fill="black"/>
<path d="M297.366 138.691H282.277L267.104 153.527V187.33H285.058L296.607 172.662H282.277V154.792H297.366V187.33H312.202V153.527L297.366 138.691Z" fill="black"/>
<path fill-rule="evenodd" clip-rule="evenodd" d="M335.074 155.045V138.691H350.079L365.758 154.37V163.474H365.758V171.904L350.079 187.583H335.074V171.23H350.079V162.801H350.079V155.045H335.074Z" fill="black"/>
<rect x="319.227" y="138.691" width="15.8476" height="48.8914" fill="black"/>
<path opacity="0.1" d="M449.26 129.156V52.0782L550.395 16.6826L562.227 129.399C562.227 129.399 449.26 132.577 449.26 129.156Z" fill="white"/>
<path d="M593.731 68.4989L643.967 61.4951M592.514 84.5858L621.088 90.9828M588.96 103.767L602.22 109.531" stroke="black" stroke-width="8.15981" stroke-linecap="square" stroke-linejoin="bevel"/>
<path d="M588.252 54.0368L613.987 40.0681M579.587 36.5595L590.765 27.3884" stroke="black" stroke-width="8.15981" stroke-linecap="square" stroke-linejoin="bevel"/>
<path d="M472.009 138.437L452.352 171.337L479.687 183.169" stroke="black" stroke-width="12.2397" stroke-linecap="square" stroke-linejoin="bevel"/>
<path d="M486.99 139.207L498.386 179.456L525.429 166.969" stroke="black" stroke-width="12.2397" stroke-linecap="square" stroke-linejoin="bevel"/>
<rect x="406.373" y="64.0098" width="17.3364" height="51.2414" fill="black"/>
<path fill-rule="evenodd" clip-rule="evenodd" d="M554.105 0L420.692 44.0629L414.531 52.5859V129.288L423.507 138.264H556.92L565.896 129.288V8.52297L554.105 0ZM432.483 120.077V59.0741L547.944 20.9401V120.312H449.212L432.452 135.531V120.077L432.483 120.077Z" fill="black"/>
</svg>
