<svg width="366" height="108" viewBox="0 0 366 108" fill="none" xmlns="http://www.w3.org/2000/svg">
<path d="M365.632 74.8899V5.69727H332.616V73.485H302.762V107.379H334.548L365.632 74.8899Z" fill="#04004A"/>
<path fill-rule="evenodd" clip-rule="evenodd" d="M120.471 39.7667V5.69727H151.73L184.395 38.3618V55.923V57.3283V74.8895L151.73 107.554H120.471V73.4846H151.73V57.3283V55.923V39.7667H120.471Z" fill="#04004A"/>
<path fill-rule="evenodd" clip-rule="evenodd" d="M232.164 39.7667V5.69727H263.424L296.088 38.3618V55.923V57.3283V74.8895L263.424 107.554H232.164V73.4846H263.424V57.3283V55.923V39.7667H232.164Z" fill="#04004A"/>
<path d="M261.314 5.69727L261.314 39.7667L230.055 39.7667L230.055 57.3283L197.39 57.3283L197.39 38.3618L230.055 5.69727L261.314 5.69727Z" fill="#04004A"/>
<path fill-rule="evenodd" clip-rule="evenodd" d="M0 39.7667V5.69727H31.2596L63.9242 38.3618V55.9228H63.9243V74.8893L31.2598 107.554H0.00012207V73.4844H31.2598V57.3283H31.2596V39.7667H0Z" fill="#04004A"/>
<rect x="75.8652" y="6.04785" width="32.6646" height="101.506" fill="#04004A"/>
<rect x="259.209" y="73.4844" width="34.0695" height="109.936" transform="rotate(90 259.209 73.4844)" fill="#04004A"/>
<path d="M174.209 17.3721L186.062 5.5188L190.794 5.5188L195.54 5.5188L207.393 17.3721L190.801 33.964L174.209 17.3721Z" fill="#04004A"/>
</svg>
