<svg width="650" height="192" viewBox="0 0 650 192" fill="none" xmlns="http://www.w3.org/2000/svg">
<path d="M365.632 87.8899V18.6973H332.616V86.485H302.762V120.379H334.548L365.632 87.8899Z" fill="#04004A"/>
<path fill-rule="evenodd" clip-rule="evenodd" d="M120.471 52.7667V18.6973H151.73L184.395 51.3618V68.923V70.3283V87.8895L151.73 120.554H120.471V86.4846H151.73V70.3283V68.923V52.7667H120.471Z" fill="#04004A"/>
<path fill-rule="evenodd" clip-rule="evenodd" d="M232.164 52.7667V18.6973H263.424L296.088 51.3618V68.923V70.3283V87.8895L263.424 120.554H232.164V86.4846H263.424V70.3283V68.923V52.7667H232.164Z" fill="#04004A"/>
<path d="M261.314 18.6973L261.314 52.7667L230.055 52.7667L230.055 70.3283L197.39 70.3283L197.39 51.3618L230.055 18.6973L261.314 18.6973Z" fill="#04004A"/>
<path fill-rule="evenodd" clip-rule="evenodd" d="M0 52.7667V18.6973H31.2596L63.9242 51.3618V68.9228H63.9243V87.8893L31.2598 120.554H0.00012207V86.4844H31.2598V70.3283H31.2596V52.7667H0Z" fill="#04004A"/>
<rect x="75.8652" y="19.0469" width="32.6646" height="101.506" fill="#04004A"/>
<rect x="259.209" y="86.4844" width="34.0695" height="109.936" transform="rotate(90 259.209 86.4844)" fill="#04004A"/>
<path d="M174.209 30.3721L186.062 18.5188L190.794 18.5188L195.54 18.5188L207.393 30.3721L190.801 46.964L174.209 30.3721Z" fill="#04004A"/>
<path fill-rule="evenodd" clip-rule="evenodd" d="M15.8457 155.522V139.169H30.8503L46.5293 154.848V163.952H31.5254V171.707H46.53V188.061H31.5254L15.8464 172.382V163.278H30.8503V155.522H15.8457Z" fill="#04004A"/>
<rect y="139.17" width="15.8476" height="48.8914" fill="#04004A"/>
<path fill-rule="evenodd" clip-rule="evenodd" d="M71.2579 155.522V139.169H86.2626L101.942 154.848V163.952H101.941V172.382L86.2624 188.061H71.2578V171.708H86.2624V163.278H86.2626V155.522H71.2579Z" fill="#04004A"/>
<path fill-rule="evenodd" clip-rule="evenodd" d="M84.2383 155.522V139.169H69.2337L53.5547 154.848V163.278V163.952V172.382L69.2337 188.061H84.2383V171.708H69.2337V163.952V163.278V155.522H84.2383Z" fill="#04004A"/>
<path fill-rule="evenodd" clip-rule="evenodd" d="M150.609 155.522V139.169H135.605L119.926 154.848V163.278V163.952V172.382L135.605 188.061H150.609V171.708H135.605V163.952V163.278V155.522H150.609Z" fill="#04004A"/>
<rect x="108.967" y="139.169" width="15.8476" height="48.8914" fill="#04004A"/>
<path fill-rule="evenodd" clip-rule="evenodd" d="M173.988 139.169L157.635 139.169L157.635 154.174L173.314 169.852L181.743 169.852L182.418 169.852L206.526 169.852L206.526 154.174L206.526 139.169L190.172 139.169L190.172 154.174L182.418 154.174L181.743 154.174L173.988 154.174L173.988 139.169Z" fill="#04004A"/>
<path fill-rule="evenodd" clip-rule="evenodd" d="M173.988 188.116L157.635 188.116L157.635 173.112L157.635 157.433L181.743 157.433L182.418 157.433L190.847 157.433L206.526 173.112L206.526 188.116L190.172 188.116L190.172 173.112L182.418 173.112L173.988 173.112L173.988 188.116Z" fill="#04004A"/>
<path fill-rule="evenodd" clip-rule="evenodd" d="M229.395 155.522V139.169H244.399L260.078 154.848V163.278V163.952V172.382L244.399 188.061H229.395V171.708H244.399V163.952V163.278V155.522H229.395Z" fill="#04004A"/>
<rect x="213.549" y="139.169" width="15.8476" height="48.8914" fill="#04004A"/>
<path d="M297.366 139.169H282.277L267.104 154.005V187.807H285.058L296.607 173.14H282.277V155.269H297.366V187.807H312.202V154.005L297.366 139.169Z" fill="#04004A"/>
<path fill-rule="evenodd" clip-rule="evenodd" d="M335.074 155.522V139.169H350.079L365.758 154.848V163.952H365.758V172.382L350.079 188.061H335.074V171.708H350.079V163.278H350.079V155.522H335.074Z" fill="#04004A"/>
<rect x="319.227" y="139.169" width="15.8476" height="48.8914" fill="#04004A"/>
<path d="M449.262 129.633V52.5557L550.397 17.1602L562.229 129.877C562.229 129.877 449.262 133.055 449.262 129.633Z" fill="#EE5C01"/>
<path d="M423.51 129.765V53.0629L556.923 9V129.765H423.51Z" stroke="#04004A" stroke-width="17.9516" stroke-linecap="round" stroke-linejoin="bevel"/>
<path d="M593.733 68.9764L643.969 61.9727M592.516 85.0633L621.09 91.4604M588.962 104.244L602.222 110.008" stroke="#EE5C01" stroke-width="8.15981" stroke-linecap="square" stroke-linejoin="bevel"/>
<path d="M588.254 54.5143L613.989 40.5457M579.589 37.037L590.767 27.866" stroke="#EE5C01" stroke-width="8.15981" stroke-linecap="square" stroke-linejoin="bevel"/>
<path d="M472.011 138.913L452.354 171.814L479.689 183.645" stroke="#04004A" stroke-width="12.2397" stroke-linecap="square" stroke-linejoin="bevel"/>
<path d="M486.992 139.684L498.388 179.934L525.431 167.446" stroke="#04004A" stroke-width="12.2397" stroke-linecap="square" stroke-linejoin="bevel"/>
<rect x="406.375" y="64.4863" width="17.3364" height="51.2414" fill="#04004A"/>
<path d="M432.453 120.554L449.26 120.747L432.453 136.008V120.554Z" fill="#D9D9D9"/>
</svg>
