<svg width="244" height="192" viewBox="0 0 244 192" fill="none" xmlns="http://www.w3.org/2000/svg">
<path d="M42.8867 129.633V52.5557L144.022 17.1602L155.854 129.877C155.854 129.877 42.8867 133.055 42.8867 129.633Z" fill="#EE5C01"/>
<path d="M17.1348 129.765V53.0629L150.548 9V129.765H17.1348Z" stroke="#04004A" stroke-width="17.9516" stroke-linecap="round" stroke-linejoin="bevel"/>
<path d="M187.358 68.9764L237.594 61.9727M186.141 85.0633L214.715 91.4604M182.587 104.244L195.847 110.008" stroke="#EE5C01" stroke-width="8.15981" stroke-linecap="square" stroke-linejoin="bevel"/>
<path d="M181.879 54.5143L207.614 40.5457M173.214 37.037L184.392 27.866" stroke="#EE5C01" stroke-width="8.15981" stroke-linecap="square" stroke-linejoin="bevel"/>
<path d="M65.6362 138.913L45.9785 171.814L73.3139 183.645" stroke="#04004A" stroke-width="12.2397" stroke-linecap="square" stroke-linejoin="bevel"/>
<path d="M80.6165 139.684L92.0134 179.934L119.056 167.446" stroke="#04004A" stroke-width="12.2397" stroke-linecap="square" stroke-linejoin="bevel"/>
<rect y="64.4863" width="17.3364" height="51.2414" fill="#04004A"/>
<path d="M26.0781 120.554L42.8846 120.747L26.0781 136.008V120.554Z" fill="#D9D9D9"/>
</svg>
